[13:14:49] gtkgui: HandBrake rev5474 (2013110399) - Linux x86_64 - http://handbrake.fr
[13:14:49] hb_init: starting libhb thread
[13:14:49] hb_init: starting libhb thread
libdvdread: Encrypted DVD support unavailable.
[13:14:51] hb_scan: path=/home/nathan/Videos/You're.Next.2011.1080p.BluRay.x264.YIFY.m4v, title_index=0
libbluray/bdnav/index_parse.c:162: indx_parse(): error opening /home/nathan/Videos/You're.Next.2011.1080p.BluRay.x264.YIFY.m4v/BDMV/index.bdmv
libbluray/bdnav/index_parse.c:162: indx_parse(): error opening /home/nathan/Videos/You're.Next.2011.1080p.BluRay.x264.YIFY.m4v/BDMV/BACKUP/index.bdmv
libbluray/bluray.c:2182: nav_get_title_list(/home/nathan/Videos/You're.Next.2011.1080p.BluRay.x264.YIFY.m4v) failed
[13:14:51] bd: not a bd - trying as a stream/file instead
libdvdnav: Using dvdnav version 4.1.3
libdvdread: Encrypted DVD support unavailable.
libdvdnav:DVDOpenFileUDF:UDFFindFile /VIDEO_TS/VIDEO_TS.IFO failed
libdvdnav:DVDOpenFileUDF:UDFFindFile /VIDEO_TS/VIDEO_TS.BUP failed
libdvdread: Can't open file VIDEO_TS.IFO.
libdvdnav: vm: failed to read VIDEO_TS.IFO
[13:14:51] dvd: not a dvd - trying as a stream/file instead
Input #0, mov,mp4,m4a,3gp,3g2,mj2, from '/home/nathan/Videos/You're.Next.2011.1080p.BluRay.x264.YIFY.m4v':
  Metadata:
    major_brand     : mp42
    minor_version   : 0
    compatible_brands: mp42isomavc1
    creation_time   : 2014-02-10 21:13:05
    title           : You're.Next.2011.1080p.BluRay.x264.YIFY
    encoder         : HandBrake rev5474 2013110399
  Duration: 00:15:58.37, start: 0.000000, bitrate: 5470 kb/s
    Stream #0.0(und): Video: h264 (High), yuv420p, 1846x1038 [PAR 2768:2769 DAR 16:9], 5145 kb/s, 23.97 fps, 90k tbn, 180k tbc
    Metadata:
      creation_time   : 2014-02-10 21:13:05
    Stream #0.1(eng): Audio: aac, 48000 Hz, stereo, fltp, 159 kb/s
    Metadata:
      creation_time   : 2014-02-10 21:13:05
    Stream #0.2(eng): Audio: ac3, 48000 Hz, stereo, fltp, 160 kb/s
    Metadata:
      creation_time   : 2014-02-10 21:13:05
[13:14:51] scan: decoding previews for title 1
[13:14:51] scan: audio 0x1: aac, rate=48000Hz, bitrate=159620 English (aac) (2.0 ch)
[13:14:51] scan: audio 0x2: AC-3, rate=48000Hz, bitrate=160000 English (AC3) (2.0 ch)
[13:14:52] scan: 10 previews, 1846x1038, 23.972 fps, autocrop = 0/0/0/0, aspect 16:9, PAR 2768:2769
[13:14:52] libhb: scan thread found 1 valid title(s)
libdvdread: Encrypted DVD support unavailable.
